HIERARCHY
ROOT simHips
{
  OFFSET 0.66249 78.041 -3.49972
  CHANNELS 6 Xposition Yposition Zposition Zrotation Xrotation Yrotation
  JOINT simSpine
  {
    OFFSET -0.000355721 21.3001 -0.016921
    CHANNELS 3 Zrotation Xrotation Yrotation
    JOINT simLeftArm
    {
      OFFSET 13.5181 21.3012 0
      CHANNELS 3 Zrotation Xrotation Yrotation
      JOINT simLeftForeArm
      {
        OFFSET 24.5783 0 0
        CHANNELS 3 Zrotation Xrotation Yrotation
        JOINT simLeftHand
        {
          OFFSET 24.5783 0 0
          CHANNELS 3 Zrotation Xrotation Yrotation
          End Site
          {
            OFFSET 7.32568 1.52588e-05 0.0169305
          }
        }
      }
    }
    JOINT simHead
    {
      OFFSET 0 27.4458 -0.00489235
      CHANNELS 3 Zrotation Xrotation Yrotation
      End Site
      {
        OFFSET 0 0 0
      }
    }
    JOINT simRightArm
    {
      OFFSET -13.5174 21.3012 0
      CHANNELS 3 Zrotation Xrotation Yrotation
      JOINT simRightForeArm
      {
        OFFSET -24.5783 0 0
        CHANNELS 3 Zrotation Xrotation Yrotation
        JOINT simRightHand
        {
          OFFSET -24.5783 0 0
          CHANNELS 3 Zrotation Xrotation Yrotation
          End Site
          {
            OFFSET -7.32568 1.52588e-05 0.0169305
          }
        }
      }
    }
  }
  JOINT simRightUpLeg
  {
    OFFSET -8.44614 -9.41038 0.835684
    CHANNELS 3 Zrotation Xrotation Yrotation
    JOINT simRightLeg
    {
      OFFSET 0 -40.9639 0
      CHANNELS 3 Zrotation Xrotation Yrotation
      JOINT simRightFoot
      {
        OFFSET 0 -40.9639 0
        CHANNELS 3 Zrotation Xrotation Yrotation
        End Site
        {
          OFFSET 0.50614 -9.67405 14.6709
        }
      }
    }
  }
  JOINT simLeftUpLeg
  {
    OFFSET 8.44614 -9.41038 0.835684
    CHANNELS 3 Zrotation Xrotation Yrotation
    JOINT simLeftLeg
    {
      OFFSET 0 -40.9639 0
      CHANNELS 3 Zrotation Xrotation Yrotation
      JOINT simLeftFoot
      {
        OFFSET 0 -40.9639 0
        CHANNELS 3 Zrotation Xrotation Yrotation
        End Site
        {
          OFFSET -0.50614 -9.67405 14.6709
        }
      }
    }
  }
}
MOTION
Frames:	16
Frame Time:	0.0333333
0.66249 78.041 -3.49972 -11.6115 -28.111 1.0536 -3.07151 13.5267 10.8358 -21.3443 12.2084 46.6528 7.24939e-06 -1.07709e-05 -41.6618 -11.7909 16.0807 -12.6046 10.477 11.5481 -18.9864 4.99118 31.0985 -8.5666 -5.34834e-05 -4.72996e-06 44.6623 36.2038 24.6509 -11.0671 -12.8251 2.29997 -18.9118 13.544 83.6612 -6.16396 16.9248 11.1341 0.157132 -8.97665 -26.3912 0.390304 -1.37567 37.4051 -0.989405 23.0932 27.2091 -5.90813 
0.44065 80.6257 -4.27545 -9.0534 -25.6978 2.9015 -2.87148 15.1385 9.03116 -27.4881 13.4402 48.3658 6.47079e-06 -1.00241e-05 -45.9503 -8.42013 14.0686 -3.84712 9.21359 10.4273 -17.5196 13.6549 33.5194 -17.0463 -5.30729e-05 -4.28563e-06 49.8758 23.3629 21.7105 -8.80815 -13.0959 0.375198 -19.0371 8.53476 79.8512 -3.68276 18.5375 14.3961 -0.530443 -10.8827 -21.246 -0.239502 -1.17113 23.6459 -3.71424 22.318 33.3426 -7.26414 
0.226834 83.1501 -4.84059 -6.87175 -23.2057 4.57851 -2.43239 16.6043 7.23433 -39.2962 7.55651 42.1743 -1.01997e-05 -1.04482e-05 -43.5565 -3.72912 10.3296 5.35953 7.93534 9.51294 -16.1808 28.8279 35.6558 -21.7366 -5.26513e-05 -3.72837e-06 55.8993 11.4833 16.654 -8.82825 -13.3335 -1.14482 -19.195 6.2129 75.8106 -3.33829 19.2712 16.6466 -1.05017 -11.2295 -18.8849 -1.49612 -1.39586 17.1499 -6.83903 14.8551 34.1668 -5.83521 
-0.0470812 85.2097 -5.45282 -4.71764 -20.6589 5.99633 -2.10891 18.1375 5.53393 -51.6071 5.56465 28.0013 0.012598 -1.16534e-05 -36.0708 0.946999 8.52894 9.80493 6.62483 8.51719 -14.8628 43.5174 34.9183 -21.1914 -5.25608e-05 -3.59113e-06 57.3155 0.00161257 10.6935 -8.33489 -12.6183 -4.01764 -17.8898 4.06713 73.5602 -4.11711 19.4286 15.42 0.953887 -10.3585 -23.7214 -3.11207 -2.05073 25.1869 -6.45843 0.0471615 28.4685 -2.97612 
-0.437087 86.5135 -6.20702 -2.45901 -18.0941 7.13357 -1.99114 19.9616 3.76463 -57.734 7.33503 10.6506 9.69436e-05 -1.27423e-05 -27.8942 4.2 6.68705 9.96866 5.25553 7.14982 -13.4798 55.147 28.4572 -14.423 -5.29767e-05 -4.16873e-06 51.1806 -7.52172 8.62064 -3.99057 -10.2689 -10.1229 -14.5228 1.67235 76.6603 -2.95665 13.0784 1.71155 6.46968 -9.19002 -33.0357 -4.72291 -2.64358 44.9416 -4.93952 -12.2814 18.6474 -2.53699 
-0.817942 87.4708 -7.18586 -0.680181 -15.6482 7.84484 -1.42927 22.2993 1.6874 -63.238 9.03602 -8.64444 3.39404e-05 -1.38008e-05 -16.8163 7.62204 -0.313928 8.00957 3.79002 5.12051 -11.9613 64.4189 21.0189 -6.20599 -5.35589e-05 -4.80339e-06 43.7549 -17.0982 6.30055 2.45256 -6.32588 -15.6884 -9.4319 -2.4741 76.313 3.74149 7.08506 -11.5971 8.8805 -6.8381 -40.5054 -4.82574 -2.40374 67.6777 -2.07187 -13.8508 9.07283 -3.34136 
-1.22979 87.5248 -9.14466 0.237483 -13.3857 7.8228 0.00514604 25.3682 -0.900948 -64.2118 11.2902 -22.7992 -0.00021966 -1.35677e-05 -19.7685 10.041 -8.77746 10.7151 2.5669 1.67558 -10.2793 71.5992 21.478 0.726499 -5.42773e-05 -5.40037e-06 35.7009 -18.6371 -0.394628 10.2073 -1.8764 -19.6641 -2.87497 -4.98096 70.7491 12.4879 3.82532 -19.4795 9.572 0.395274 -42.8743 -1.49982 126.682 88.9147 -123.965 -8.59489 0.717633 -0.50784 
-1.29689 87.4211 -11.6911 0.554766 -10.2027 8.64181 1.60907 24.6607 -3.26804 -60.7705 12.8788 -36.0199 0.153546 -1.31812e-05 -23.8989 6.07385 -0.615488 6.4898 2.7358 0.256208 -9.75694 73.8173 26.4177 1.84091 -5.46536e-05 -5.65186e-06 31.8001 -8.80103 3.5663 12.3071 -0.965471 -23.2373 -1.78877 -4.56847 66.9283 13.7592 -0.984424 -27.1567 7.52674 9.8431 -39.0976 1.10624 172.066 76.3887 -164.474 -6.31504 -2.53486 1.83014 
-1.20275 88.0398 -14.4866 1.10437 -7.29329 9.38175 2.85067 21.8728 -6.17559 -55.5366 13.4403 -46.2791 -1.87995e-05 -1.18735e-05 -34.5577 4.52428 10.0758 2.33183 1.98896 0.0908205 -8.11925 74.4157 23.6767 -4.55755 -5.48105e-05 -5.74615e-06 30.2233 8.50171 4.2691 5.84909 -3.40142 -28.0895 -3.39123 -2.31795 65.8408 11.6342 -2.27631 -23.2522 6.6336 16.2453 -27.8652 2.15083 171.27 76.6299 -165.457 -0.979663 2.78793 0.175044 
-0.927917 89.1621 -17.2043 1.77904 -4.6128 9.44426 3.73817 18.6761 -8.79722 -48.7387 11.2715 -47.919 -0.00037852 -7.59934e-06 -58.1905 4.78052 16.8635 1.7011 1.17748 0.67275 -5.94354 71.6028 19.7867 -12.4813 -5.49615e-05 -5.83153e-06 28.7282 10.7698 3.09963 7.65651 -7.48207 -33.35 -7.2245 1.92881 65.1207 8.2217 -3.08284 -14.1463 5.37323 16.9422 -15.0604 3.1276 145.742 85.5901 -147.806 -5.04397 10.2049 0.595109 
-0.195303 90.3583 -20.0221 2.96873 -1.65231 8.60308 3.69795 14.8117 -10.3384 -44.607 5.94954 -46.6067 -0.000525989 -2.61466e-06 -79.5513 3.51607 12.7148 0.495396 0.695861 2.38744 -3.892 65.4868 14.1356 -24.9677 -5.45604e-05 -5.59301e-06 32.7497 5.26081 -1.42055 13.5139 -11.7751 -38.5881 -13.7379 6.27548 63.9907 -1.40461 -2.79272 -6.35541 0.0883947 14.0337 -3.17519 6.71292 13.6182 78.4759 -17.7004 -9.29008 11.6726 1.17318 
0.66764 90.9757 -22.9187 4.29086 1.56208 7.83805 3.2793 10.5605 -11.4701 -43.4115 -1.60693 -48.6571 -0.000657679 1.9199e-07 -90.763 0.58085 10.3055 -4.46266 0.397925 3.96856 -2.26326 56.7779 9.61176 -38.9655 -5.40812e-05 -5.25399e-06 37.8087 4.97495 -5.19297 18.1067 -14.3847 -43.1907 -20.0571 11.4026 60.0773 -19.0822 0.677456 -4.79496 -11.8366 11.1987 6.93216 11.8131 0.957186 60.9317 -1.20139 -9.99807 10.9484 1.23192 
1.36907 90.7639 -26.0767 5.03245 4.90438 8.1738 3.20834 6.19933 -12.7983 -42.7284 -10.486 -52.3028 -0.000739526 1.03596e-06 -94.1205 -0.267483 8.23664 -11.5206 0.117166 4.51225 -1.21449 46.1381 8.59463 -51.2047 -5.37087e-05 -4.94244e-06 41.9941 12.1926 -5.73441 13.5013 -16.7506 -46.4962 -24.8303 15.8741 53.8085 -22.2498 -2.56621 -4.46289 -28.3533 7.36906 13.4595 13.6004 -1.61002 44.8909 7.5128 -12.0712 9.47516 1.37766 
1.78949 89.3552 -29.7871 4.79198 7.22593 11.6362 4.10228 3.04029 -15.553 -42.4856 -18.9509 -57.4708 -0.000736389 4.9734e-07 -91.9769 -1.71685 5.09116 -13.8952 -0.735272 4.03088 -1.35408 37.2 12.0501 -63.1357 -5.32848e-05 -4.52508e-06 47.1209 17.8135 -0.98596 2.06451 -19.8332 -48.6937 -28.5322 16.2415 50.5988 -22.1178 -4.8776 -8.22867 -30.5282 5.21554 15.9501 11.9346 0.623298 35.1248 2.59196 -11.2364 9.75667 1.34595 
1.98634 87.4042 -34.5633 3.72164 5.89545 15.0064 5.66125 3.95806 -17.7593 -41.2354 -22.9455 -60.0117 -0.000612705 -1.78048e-07 -89.2924 0.0700602 4.07014 -12.8166 -0.561289 2.29727 -2.35411 35.4228 16.9242 -72.1043 -5.28569e-05 -4.01529e-06 52.8578 19.8085 11.732 -11.6155 -20.0657 -48.9961 -29.6254 15.3805 47.5016 -20.5977 -10.8759 -6.48531 -31.2709 5.22362 16.0154 8.85916 4.80607 35.1781 -6.77011 -13.2794 4.75959 1.0868 
2.07339 86.6854 -39.7663 2.74159 4.22573 14.3765 5.84043 5.80099 -16.5356 -38.3475 -22.3987 -57.5592 -0.00033301 4.48865e-08 -90.1784 6.07764 7.918 -12.1043 1.00686 1.39733 -2.28368 39.1448 18.9833 -75.8606 -5.2568e-05 -3.6023e-06 57.2011 23.5359 19.5955 -24.4522 -17.5483 -48.6909 -28.2069 14.0773 41.7602 -19.1653 -12.2884 -0.176899 -30.5179 4.79613 14.7019 7.41831 6.44911 37.7861 -10.0268 -14.0964 -2.11859 0.267599 
